<svg xmlns="http://www.w3.org/2000/svg" viewBox="0 0 189 171">
  <rect width="100%" height="100%" fill="black"/>
  <path d="M83.1,139.4a20.85,20.85,0,0,1-29.43,0L14.53,100.2a20.68,20.68,0,0,1,0-29.38L29.21,56.08l54,54a20.85,20.85,0,0,1,0,29.43Z" fill="#b0aeae" fill-rule="evenodd"/>
  <path d="M43.9,100.2a20.75,20.75,0,0,0-.76,28.56l.76.81L14.53,100.2a20.7,20.7,0,0,1,0-29.38l39.14-39.2A20.79,20.79,0,1,1,83.1,61L43.9,100.2Z" fill="#fff" fill-rule="evenodd"/>
  <path d="M105.94,31.62a20.79,20.79,0,0,1,29.38,0l39.2,39.2a20.77,20.77,0,0,1,0,29.37l-14.58,14.69-54-54a20.67,20.67,0,0,1,0-29.37Z" fill="#b0aeae" fill-rule="evenodd"/>
  <path d="M105.94,139.33a20.8,20.8,0,0,1,0-29.37l39.21-39.2a20.8,20.8,0,0,0,.75-28.57l-.75-1L174.52,70.6a20.77,20.77,0,0,1,0,29.37l-39.2,39.15a20.69,20.69,0,0,1-14.64,6.23,20.75,20.75,0,0,1-14.74-6Z" fill="#fff" fill-rule="evenodd"/>
</svg>
