<?xml version="1.0" encoding="UTF-8"?>
<svg xmlns="http://www.w3.org/2000/svg" xmlns:xlink="http://www.w3.org/1999/xlink" width="20px" height="18px" viewBox="0 0 19 18" version="1.1">
<g id="surface1">
<path style=" stroke:none;fill-rule:evenodd;fill:rgb(69.01961%,68.235296%,68.235296%);fill-opacity:1;" d="M 8.355469 14.671875 C 7.535156 15.527344 6.214844 15.527344 5.394531 14.671875 L 1.460938 10.546875 C 1.066406 10.136719 0.84375 9.582031 0.84375 9 C 0.84375 8.421875 1.066406 7.863281 1.460938 7.453125 L 2.9375 5.902344 L 8.363281 11.585938 C 9.179688 12.445312 9.179688 13.828125 8.363281 14.683594 Z M 8.355469 14.671875 "/>
<path style=" stroke:none;fill-rule:evenodd;fill:rgb(100%,100%,100%);fill-opacity:1;" d="M 4.414062 10.546875 C 3.628906 11.367188 3.59375 12.691406 4.335938 13.554688 L 4.414062 13.640625 L 1.460938 10.546875 C 1.066406 10.136719 0.847656 9.582031 0.847656 9 C 0.847656 8.421875 1.066406 7.863281 1.460938 7.453125 L 5.394531 3.328125 C 6.210938 2.472656 7.535156 2.472656 8.351562 3.324219 C 9.167969 4.179688 9.167969 5.566406 8.355469 6.421875 Z M 4.414062 10.546875 "/>
<path style=" stroke:none;fill-rule:evenodd;fill:rgb(69.01961%,68.235296%,68.235296%);fill-opacity:1;" d="M 10.648438 3.328125 C 11.464844 2.476562 12.789062 2.476562 13.605469 3.328125 L 17.542969 7.453125 C 18.359375 8.308594 18.359375 9.691406 17.542969 10.546875 L 16.078125 12.09375 L 10.648438 6.410156 C 10.257812 6 10.035156 5.441406 10.035156 4.863281 C 10.035156 4.28125 10.257812 3.726562 10.648438 3.316406 Z M 10.648438 3.328125 "/>
<path style=" stroke:none;fill-rule:evenodd;fill:rgb(100%,100%,100%);fill-opacity:1;" d="M 10.648438 14.667969 C 9.835938 13.8125 9.835938 12.429688 10.648438 11.574219 L 14.59375 7.449219 C 15.375 6.625 15.40625 5.304688 14.667969 4.441406 L 14.59375 4.335938 L 17.542969 7.429688 C 18.359375 8.285156 18.359375 9.667969 17.542969 10.523438 L 13.605469 14.644531 C 13.214844 15.058594 12.6875 15.296875 12.132812 15.300781 C 11.578125 15.304688 11.042969 15.078125 10.648438 14.667969 Z M 10.648438 14.667969 "/>
</g>
</svg>
